<?xml version="1.0" encoding="utf-8"?>
<!-- Generator: Adobe Illustrator 27.5.0, SVG Export Plug-In . SVG Version: 6.00 Build 0)  -->
<svg version="1.1" id="Слой_2_00000024703062921931352250000017910524968085737896_"
	 xmlns="http://www.w3.org/2000/svg" xmlns:xlink="http://www.w3.org/1999/xlink" x="0px" y="0px" width="1001px" height="155px"
	 viewBox="0 0 1001 155" style="enable-background:new 0 0 1001 155;" xml:space="preserve">
<style type="text/css">
	.st0{fill:#4CA9F6;}
</style>
<g>
	<g>
		<path class="st0" d="M233.5,62.7v9h18.2v13.6h-18.2v19.8h-15.7V48.6h36v14.1C253.8,62.7,233.5,62.7,233.5,62.7z"/>
		<path class="st0" d="M261.5,83.3V48.6h15.9V83c0,5.5,3.6,9.1,8.8,9.1c5.2,0,8.8-3.6,8.8-9.1V48.6h15.9v34.7
			c0,13.9-10.3,23.3-24.7,23.3C271.8,106.6,261.5,97.2,261.5,83.3z"/>
		<path class="st0" d="M363.6,62.6h-15.4v42.5h-15.6V62.6h-15.4v-14h46.4V62.6z"/>
		<path class="st0" d="M370,83.3V48.6h15.9V83c0,5.5,3.6,9.1,8.8,9.1c5.2,0,8.8-3.6,8.8-9.1V48.6h15.9v34.7
			c0,13.9-10.3,23.3-24.7,23.3C380.3,106.6,370,97.2,370,83.3z"/>
		<path class="st0" d="M451,87.8h-5.6v17.3h-15.6V48.6h24.5c12.2,0,21,8.2,21,20c0,6.9-3.4,12.6-9,16l11.2,20.6h-17.4L451,87.8z
			 M445.3,74.7h7.1c4.4,0,6.9-2.6,6.9-6.2c0-3.5-2.5-6.1-6.9-6.1h-7.1V74.7z"/>
		<path class="st0" d="M521.2,91.6v13.5h-36.9V48.6h36.2V62h-20.7v8.3h18.6v12.8h-18.6v8.5C499.8,91.6,521.2,91.6,521.2,91.6z"/>
		<path class="st0" d="M563.4,62.7v9h18.2v13.6h-18.2v19.8h-15.7V48.6h36v14.1C583.7,62.7,563.4,62.7,563.4,62.7z"/>
		<path class="st0" d="M591.3,83.3V48.6h15.9V83c0,5.5,3.6,9.1,8.8,9.1s8.8-3.6,8.8-9.1V48.6h15.9v34.7c0,13.9-10.3,23.3-24.7,23.3
			C601.6,106.6,591.3,97.2,591.3,83.3z"/>
		<path class="st0" d="M687,90.9v14.3h-35.9V48.6h15.8v42.3C666.9,90.9,687,90.9,687,90.9z"/>
		<path class="st0" d="M729.9,90.9v14.3H694V48.6h15.8v42.3C709.8,90.9,729.9,90.9,729.9,90.9z"/>
		<path class="st0" d="M733.4,86.9h16.1c0,4,3.1,6,6.7,6c3.3,0,6.4-1.7,6.4-4.8c0-3.5-4.4-4.6-9.8-5.9c-8.2-2-18.6-4.5-18.6-17.4
			c0-11.1,8.2-17.5,21.5-17.5c13.6,0,21.3,7,21.3,18.5h-15.6c0-3.6-2.7-5.3-5.9-5.3c-2.8,0-5.4,1.2-5.4,3.8c0,3.2,4.3,4.3,9.6,5.6
			c8.3,2.1,19.2,4.9,19.2,17.8c0,12.4-9.5,18.8-22.6,18.8C742.3,106.5,733.4,99.2,733.4,86.9z"/>
		<path class="st0" d="M828.2,62.6h-15.4v42.5h-15.6V62.6h-15.4v-14h46.4V62.6z"/>
		<path class="st0" d="M863.8,95.9h-20l-3.1,9.2H824l22.2-56.6h15.2l22.7,56.6h-17.2L863.8,95.9z M853.8,66.2l-6.2,17.5H860
			L853.8,66.2z"/>
		<path class="st0" d="M914,106.6c-17.2,0-30.1-12.7-30.1-29.7s12.9-29.8,30.1-29.8c14.8,0,26.3,9.8,28.6,24.1h-15.8
			c-1.9-5.8-6.8-9.6-12.8-9.6c-8,0-13.9,6.4-13.9,15.2c0,8.7,5.9,15.1,13.9,15.1c6.3,0,11.2-4.1,12.8-10.4h15.9
			C940.6,96.5,929.1,106.6,914,106.6L914,106.6z"/>
		<path class="st0" d="M982,105.1l-16.2-25v25h-15.6V48.6h15.6v23.8l14.9-23.8h18.1L980.7,76l19.8,29.2L982,105.1L982,105.1z"/>
	</g>
	<g>
		<g>
			<path class="st0" d="M171.5,51.4L101,81.3c-7.7,3.3-16.4,3.3-24.1,0L6.4,51.4c-7.9-3.3-7.9-14.5,0-17.9L76.8,3.3
				c7.8-3.3,16.6-3.3,24.3,0l70.4,30.2C179.4,36.9,179.4,48.1,171.5,51.4z"/>
		</g>
		<g>
			<path class="st0" d="M171.5,86.7L101,116.5c-7.7,3.3-16.4,3.3-24.1,0L6.4,86.7c-7.9-3.4-7.9-14.5,0-17.9l0,0c2.3-1,4.9-1,7.2,0
				l63.3,26.8c7.7,3.3,16.4,3.3,24.1,0l63.3-26.8c2.3-1,4.9-1,7.2,0l0,0C179.4,72.1,179.4,83.3,171.5,86.7z"/>
		</g>
		<g>
			<path class="st0" d="M171.5,121.9L101,151.7c-7.7,3.3-16.4,3.3-24.1,0L6.4,121.9c-7.9-3.4-7.9-14.5,0-17.9l0,0c2.3-1,4.9-1,7.2,0
				l63.3,26.8c7.7,3.3,16.4,3.3,24.1,0l63.3-26.8c2.3-1,4.9-1,7.2,0l0,0C179.4,107.3,179.4,118.5,171.5,121.9z"/>
		</g>
	</g>
</g>
</svg>
